Patient4_TMGait_0pt8_01_right_01_EMG.mot
version=1
nRows=13
nColumns=33
inDegrees=no
endheader
time	1LAddLong	2LGlutMax	3LGlutMed	4LIliopsoas	5LSemiMemb	6LBicFemLong	7LRecFem	8LVastMed	9LVastLat	10LGasMed	11LTibAnt	12lTibPost	13LPeroneusLong	14LSol	15LExtDigLong	16LFlexDigLong	17RAddLong	18RGlutMax	19RGlutMed	20RIliopsoas	21RSemiMemb	22RBicFemLong	23RRecFem	24RVastMed	25RVastLat	26RGasMed	27RTibAnt	28RTibPost	29RPeroneusLong	30RSol	31RExtDigLong	32RFlexDigLong
1.948	0.007019	0.18204	0.005951	0.007629	-0.017548	-0.023956	0.24689	0.005798	-0.076904	0.035706	0.28427	0.003052	0.010223	-0.16983	0.06485	-0.062103	0	-0.12726	-0.12238	-0.015411	0.086975	0.12177	-0.088196	-0.011139	-0.005341	-0.004272	0.31662	-0.007935	-0.77164	-0.097046	-0.005646	-0.076294
1.949	0.003204	0.16876	-0.006104	-0.012665	-0.032654	-0.049286	0.26016	0.021973	-0.096283	0.001373	0.37064	0.003204	0.015259	-0.10605	0.88669	-0.028229	-0.024109	-0.14404	-0.20935	0.11124	0.028992	0.14358	-0.047455	-0.069427	-0.016479	-0.018463	0.13519	-0.003204	-0.014343	-0.054932	-0.003967	-0.089874
1.95	-0.006409	0.16541	-0.022736	-0.014648	-0.038605	0.000916	0.29617	0.030518	-0.079803	-0.11169	-0.16159	0.002136	0.12543	0.03479	0.27618	-0.043182	-0.002747	-0.16205	-0.068817	0.16235	-0.013275	0.15717	-0.057373	-0.049744	0.001526	-0.016479	0.18143	-0.000458	0.82962	-0.023956	-0.003052	-0.13275
1.951	0.000763	0.17227	-0.019684	0.005646	-0.018158	-0.003967	0.14816	0.024414	-0.037384	-0.11612	-0.2446	0.001221	0.12787	0.18509	-0.44769	-0.052643	0.004272	-0.20981	-0.19775	0.19302	-0.036621	0.13718	-0.00412	-0.034485	-0.001678	-0.020142	0.29526	-0.000153	0.83572	-0.027618	0.00061	-0.16312
1.952	0.006104	0.21179	0.026398	0.00824	0.01709	-0.081482	0.064087	0.005341	0.2034	-0.05127	-0.062866	0.001984	-0.045471	0.20416	-0.016174	-0.065155	0.023651	-0.22675	-0.10086	0.071106	-0.055084	0.075226	-0.038757	-0.073242	0.003052	-0.018311	0.3122	-0.003357	0.50552	-0.044098	0.000153	-0.18036
1.953	0.010376	0.23727	0.027466	0.017853	0.040588	-0.2066	0.17166	-0.003204	0.16327	-0.03891	0.19424	0.00061	-0.050659	0.1326	-0.14679	-0.048676	0.017548	-0.16739	-0.090179	-0.018158	-0.066528	0.089722	-0.016174	-0.066071	0.001221	-0.009766	0.23254	-0.005798	-0.015106	-0.011749	0	-0.25055
1.954	0.013428	0.2742	0.06424	0.008087	0.015106	-0.075073	0.14282	-0.006104	-0.013885	-0.10162	0.16495	0.00824	0.068817	0.14801	-0.31677	-0.029297	0.005798	-0.1683	-0.32791	-0.058289	-0.041809	0.092621	-0.010681	-0.085144	-0.000763	-0.010071	-0.12634	0.000916	-0.096741	-0.043488	0.001373	-0.35416
1.955	0.008545	0.28763	0.03891	-0.00946	-0.015564	0.098419	0.06958	-0.007629	-0.050354	-0.071411	-0.093536	0.000916	0.071716	0.11536	-0.26947	-0.028076	-0.022125	-0.1651	-0.23148	-0.044403	0.013733	0.1355	-0.032196	-0.058746	0.024414	-0.010681	-0.3746	-0.001526	-0.027466	-0.038452	-0.002289	-0.27374
1.956	0.004578	0.3038	0.041046	-0.018311	-0.037384	0.14389	0.10407	-0.020599	0.015869	-0.033569	0.080872	0.006409	-0.022888	-0.007782	0.21805	-0.068512	-0.041199	-0.097504	-0.09964	-0.026245	0.068512	0.16953	-0.045624	-0.018616	0.041351	-0.004425	-0.15686	-0.000153	-0.48187	-0.11414	-0.003357	-0.24399
1.957	-0.00885	0.29862	0.072479	-0.016937	-0.016022	0.168	0.13916	-0.011139	0.029602	-0.031586	-0.038757	0.002594	0.030518	0.080109	0.15564	-0.065155	-0.016632	-0.14557	-0.24872	-0.048676	0.007782	0.11597	-0.09964	0.014648	0.023346	-0.001984	-0.069427	-0.007172	-0.69275	-0.11246	-0.002136	-0.28015
1.958	-0.001526	0.2652	-0.002594	-0.003662	-0.075836	0.15442	0.12222	-0.00946	0.036926	-0.016785	-0.076447	0.001831	-0.011902	0.17883	-0.12375	-0.025787	0.010681	-0.16968	-0.19333	-0.01709	-0.027313	0.075531	-0.062408	-0.022888	0.00946	-0.010071	0.016022	-0.00412	-0.20477	-0.054321	0.000305	-0.21057
1.959	0.001831	0.22736	-0.032349	0.011597	-0.10468	0.029907	0.12344	-0.007477	0.044861	-0.00824	-0.053253	0.000153	-0.050507	0.01709	-0.19134	-0.025177	0.011749	-0.16449	-0.14343	0.08194	-0.037842	0.067749	-0.071259	-0.04715	0.021667	-0.008392	0.007629	-0.005798	0.02655	-0.066528	0.010071	-0.17853
1.96	0.005188	0.18494	-0.13931	0.012665	0.016479	-0.23499	0.12634	-0.006104	0.005035	0.013428	0.075226	0.003815	-0.058289	-0.040283	-0.37979	-0.028229	0.010681	-0.103	-0.28198	0.14069	-0.031586	0.088043	-0.059814	-0.067596	0.002899	-0.006409	0.001373	-0.005646	0.29526	-0.074463	-0.000916	-0.18036
